<svg width="100" height="125" xmlns="http://www.w3.org/2000/svg">

 <g>
  <title>background</title>
  <rect fill="none" id="canvas_background" height="402" width="582" y="-1" x="-1"/>
 </g>
 <g>
  <title>Layer 1</title>
  <path id="svg_1" d="m89.005371,58.699219l-9.54071,0c5.076538,-2.214539 8.636902,-7.276428 8.636902,-13.15918c0,-7.916016 -6.439453,-14.355469 -14.354981,-14.355469c-2.251892,0 -4.375915,0.535767 -6.274597,1.463806l-5.708191,-9.817321l3.386413,-10.831055l4.519227,0c0.552246,0 1,-0.447266 1,-1s-0.447754,-1 -1,-1l-10.870606,0c-0.552246,0 -1,0.447266 -1,1s0.447754,1 1,1l4.25531,0l-3.058166,9.78125l-22.916809,0l2.191345,-9.039062c0.072265,-0.297852 0.003906,-0.612305 -0.185547,-0.853516c-0.189942,-0.241211 -0.479492,-0.381836 -0.786133,-0.381836l-10.323242,0c-0.110413,0 -0.211914,0.029724 -0.311218,0.062744c-3.242066,0.145386 -5.83722,2.821167 -5.83722,6.099365c0,3.370118 2.742188,6.112305 6.112305,6.112305c0.552246,0 1,-0.447266 1,-1s-0.447754,-1 -1,-1c-2.267578,0 -4.112305,-1.844727 -4.112305,-4.112305c0,-2.268554 1.844727,-4.113281 4.112305,-4.113281c0.085815,0 0.162476,-0.028503 0.241943,-0.048828l8.845948,0l-4.625427,19.080689c-1.866761,-0.889954 -3.946351,-1.402955 -6.148499,-1.402955c-7.915527,0 -14.35498,6.439453 -14.35498,14.355469c0,5.882752 3.560363,10.944641 8.636901,13.15918l-9.529968,0c-0.552246,0 -1,0.447266 -1,1s0.447754,1 1,1l78,0c0.552246,0 1,-0.447266 1,-1s-0.447754,-1 -1,-1zm-15.258789,-25.514649c6.8125,0 12.354981,5.542969 12.354981,12.355469s-5.542481,12.354492 -12.354981,12.354492c-5.863953,0 -10.776794,-4.110046 -12.034058,-9.598205l8.00116,-1.155213c0.639649,1.605591 2.20221,2.746582 4.032898,2.746582c2.396973,0 4.347168,-1.950195 4.347168,-4.347656s-1.950195,-4.347656 -4.347168,-4.347656c-0.417969,0 -0.81427,0.078064 -1.197082,0.188659l-4.070374,-7.000549c1.600464,-0.758728 3.381775,-1.195923 5.267456,-1.195923zm-12.35498,12.355469c0,-4.212707 2.122741,-7.93573 5.351257,-10.166992l4.062012,6.986145c-0.770203,0.712891 -1.269715,1.69696 -1.367127,2.801941l-8.006775,1.156006c-0.016174,-0.258301 -0.039367,-0.514771 -0.039367,-0.7771zm12.35498,-2.347656c1.294434,0 2.347168,1.052734 2.347168,2.347656s-1.052734,2.347656 -2.347168,2.347656s-2.347168,-1.052734 -2.347168,-2.347656s1.052734,-2.347656 2.347168,-2.347656zm-8.013977,-9.556824c-3.822632,2.581787 -6.341003,6.954224 -6.341003,11.90448c0,0.35907 0.027832,0.711243 0.053894,1.063782l-2.668763,0.385315c-0.375366,-0.910889 -1.050903,-1.656494 -1.894897,-2.147156l6.072998,-19.423584l4.777771,8.217163zm-13.071472,12.590027c1.352539,0 2.453125,1.100586 2.453125,2.454102c0,1.352539 -1.100586,2.453125 -2.453125,2.453125s-2.453125,-1.100586 -2.453125,-2.453125c0,-1.353516 1.100586,-2.454102 2.453125,-2.454102zm6.709473,-22.444336l-6.401795,20.475464c-0.103577,-0.007263 -0.202331,-0.031128 -0.307678,-0.031128c-0.650757,0 -1.264832,0.14801 -1.822571,0.399963l-14.716431,-18.896484l0.472168,-1.947815l22.776307,0zm-45.472168,21.758789c0,-6.8125 5.54248,-12.355469 12.35498,-12.355469c2.043274,0 3.96759,0.506775 5.667114,1.388733l-0.573364,2.365174l-3.390503,4.602966c-0.523498,-0.223877 -1.098816,-0.34906 -1.703247,-0.34906c-2.396973,0 -4.347168,1.950195 -4.347168,4.347656s1.950195,4.347656 4.347168,4.347656s4.347168,-1.950195 4.347168,-4.347656c0,-1.069824 -0.403137,-2.037781 -1.046204,-2.79596l3.522278,-4.782165c0.078613,-0.106445 0.135254,-0.228516 0.166504,-0.357422l0.460022,-1.897644c2.973206,2.258423 4.905212,5.820129 4.905212,9.833191c0,6.8125 -5.54248,12.354492 -12.35498,12.354492s-12.35498,-5.541992 -12.35498,-12.354492zm14.702148,0c0,1.294922 -1.052734,2.347656 -2.347168,2.347656s-2.347168,-1.052734 -2.347168,-2.347656s1.052734,-2.347656 2.347168,-2.347656s2.347168,1.052734 2.347168,2.347656zm12.007812,0c0,-4.972839 -2.54309,-9.36029 -6.39508,-11.937378l1.307007,-5.391357l13.733947,17.634765c-0.643371,0.772461 -1.046264,1.751954 -1.046264,2.833619c0,2.455078 1.997558,4.453125 4.453125,4.453125c2.358093,0 4.274414,-1.848023 4.424316,-4.168457l2.638062,-0.38086c0.986328,4.546936 4.130127,8.294495 8.304992,10.115723l-36.057006,0c5.076538,-2.214539 8.636901,-7.276429 8.636901,-13.15918z"/>
  <path id="svg_2" d="m88.222168,85.4375c-1.399414,1.761719 -3.483398,2.772461 -5.717773,2.772461c-2.234864,0 -4.318848,-1.010742 -5.717774,-2.772461c-0.189941,-0.238281 -0.478027,-0.37793 -0.783203,-0.37793s-0.593262,0.139649 -0.783203,0.37793c-1.399414,1.761719 -3.483398,2.772461 -5.717773,2.772461c-2.234864,0 -4.318848,-1.010742 -5.717286,-2.772461c-0.189453,-0.238281 -0.478027,-0.37793 -0.783203,-0.37793s-0.593262,0.139649 -0.783203,0.37793c-1.399414,1.761719 -3.483398,2.772461 -5.717773,2.772461c-2.234864,0 -4.318848,-1.010742 -5.717774,-2.772461c-0.189941,-0.238281 -0.478027,-0.37793 -0.783203,-0.37793s-0.593262,0.139649 -0.783203,0.37793c-1.399414,1.761719 -3.483399,2.772461 -5.717774,2.772461c-2.234863,0 -4.318847,-1.010742 -5.717773,-2.772461c-0.189941,-0.238281 -0.478027,-0.37793 -0.783203,-0.37793s-0.593262,0.139649 -0.783203,0.37793c-1.399414,1.761719 -3.483399,2.772461 -5.717774,2.772461c-2.234863,0 -4.318847,-1.010742 -5.718261,-2.772461c-0.379883,-0.476562 -1.186524,-0.476562 -1.566406,0c-1.398926,1.761719 -3.482911,2.772461 -5.717774,2.772461c-2.234375,0 -4.318359,-1.010742 -5.717773,-2.772461c-0.345215,-0.432617 -0.973145,-0.50293 -1.405274,-0.161133c-0.432129,0.34375 -0.504394,0.972656 -0.161132,1.405274c1.78125,2.242187 4.436035,3.52832 7.284179,3.52832c2.456543,0 4.769043,-0.956055 6.500977,-2.658203c1.732422,1.701172 4.04541,2.658203 6.501465,2.658203s4.768554,-0.957031 6.500976,-2.658203c1.731934,1.702148 4.044434,2.658203 6.500977,2.658203c2.456055,0 4.768555,-0.957031 6.500976,-2.658203c1.731934,1.702148 4.044434,2.658203 6.500977,2.658203s4.768555,-0.956055 6.5,-2.658203c1.732422,1.702148 4.04541,2.658203 6.501465,2.658203s4.768555,-0.957031 6.500976,-2.658203c1.731934,1.702148 4.044434,2.658203 6.500977,2.658203c2.848145,0 5.50293,-1.286133 7.28418,-3.52832c0.343261,-0.432618 0.270996,-1.061524 -0.161133,-1.405274c-0.432618,-0.341797 -1.061036,-0.271484 -1.405274,0.161133z"/>
  <path id="svg_3" d="m89.627441,76.104492c-0.432617,-0.342773 -1.061035,-0.271484 -1.405273,0.161133c-1.399414,1.761719 -3.483398,2.772461 -5.717773,2.772461c-2.234864,0 -4.318848,-1.010742 -5.717774,-2.772461c-0.189941,-0.238281 -0.478027,-0.37793 -0.783203,-0.37793s-0.593262,0.139649 -0.783203,0.37793c-1.399414,1.761719 -3.483398,2.772461 -5.717773,2.772461c-2.234864,0 -4.318848,-1.010742 -5.717286,-2.772461c-0.189453,-0.238281 -0.478027,-0.37793 -0.783203,-0.37793s-0.593261,0.139649 -0.783203,0.37793c-1.399414,1.761719 -3.483398,2.772461 -5.717773,2.772461c-2.234863,0 -4.318848,-1.010742 -5.717774,-2.772461c-0.189941,-0.238281 -0.478027,-0.37793 -0.783203,-0.37793s-0.593262,0.139649 -0.783203,0.37793c-1.399414,1.761719 -3.483399,2.772461 -5.717774,2.772461c-2.234863,0 -4.318847,-1.010742 -5.717773,-2.772461c-0.189941,-0.238281 -0.478027,-0.37793 -0.783203,-0.37793s-0.593262,0.139649 -0.783203,0.37793c-1.399414,1.761719 -3.483399,2.772461 -5.717774,2.772461c-2.234863,0 -4.318847,-1.010742 -5.718261,-2.772461c-0.379883,-0.476562 -1.186524,-0.476562 -1.566406,0c-1.398926,1.761719 -3.482911,2.772461 -5.717774,2.772461c-2.234375,0 -4.318359,-1.010742 -5.717773,-2.772461c-0.345215,-0.432617 -0.973145,-0.503906 -1.405274,-0.161133c-0.432129,0.34375 -0.504394,0.972656 -0.161132,1.405274c1.78125,2.242187 4.436035,3.52832 7.284179,3.52832c2.456543,0 4.769043,-0.956055 6.500977,-2.658203c1.732422,1.701172 4.04541,2.658203 6.501465,2.658203s4.768554,-0.957031 6.500976,-2.658203c1.731934,1.702148 4.044434,2.658203 6.500977,2.658203c2.456055,0 4.768555,-0.957031 6.500976,-2.658203c1.731934,1.702148 4.044434,2.658203 6.500977,2.658203s4.768555,-0.956055 6.5,-2.658203c1.732422,1.702148 4.04541,2.658203 6.501465,2.658203s4.768555,-0.957031 6.500976,-2.658203c1.731934,1.702148 4.044434,2.658203 6.500977,2.658203c2.848145,0 5.50293,-1.286133 7.28418,-3.52832c0.343261,-0.432618 0.270995,-1.061524 -0.161134,-1.405274z"/>
  <path id="svg_4" d="m89.627441,66.381836c-0.432617,-0.342773 -1.061035,-0.271485 -1.405273,0.161133c-1.399414,1.761719 -3.483398,2.772461 -5.717773,2.772461c-2.234864,0 -4.318848,-1.010743 -5.717774,-2.772461c-0.189941,-0.238281 -0.478027,-0.37793 -0.783203,-0.37793s-0.593262,0.139648 -0.783203,0.37793c-1.399414,1.761719 -3.483398,2.772461 -5.717773,2.772461c-2.234864,0 -4.318848,-1.010743 -5.717286,-2.772461c-0.189453,-0.238281 -0.478027,-0.37793 -0.783203,-0.37793s-0.593261,0.139648 -0.783203,0.37793c-1.399414,1.761719 -3.483398,2.772461 -5.717773,2.772461c-2.234863,0 -4.318848,-1.010743 -5.717774,-2.772461c-0.189941,-0.238281 -0.478027,-0.37793 -0.783203,-0.37793s-0.593262,0.139649 -0.783203,0.37793c-1.399414,1.761719 -3.483399,2.772461 -5.717774,2.772461c-2.234863,0 -4.318847,-1.010742 -5.717773,-2.772461c-0.189941,-0.238281 -0.478027,-0.37793 -0.783203,-0.37793s-0.593262,0.139649 -0.783203,0.37793c-1.399414,1.761719 -3.483399,2.772461 -5.717774,2.772461c-2.234863,0 -4.318847,-1.010742 -5.718261,-2.772461c-0.379883,-0.476563 -1.186524,-0.476563 -1.566406,0c-1.398926,1.761719 -3.482911,2.772461 -5.717774,2.772461c-2.234375,0 -4.318359,-1.010742 -5.717773,-2.772461c-0.345215,-0.432617 -0.973145,-0.503906 -1.405274,-0.161133c-0.432129,0.34375 -0.504394,0.972656 -0.161132,1.405273c1.78125,2.242188 4.436035,3.528321 7.284179,3.528321c2.456543,0 4.769043,-0.956055 6.500977,-2.658203c1.732422,1.701172 4.04541,2.658203 6.501465,2.658203s4.768554,-0.957032 6.500976,-2.658203c1.731934,1.702148 4.044434,2.658203 6.500977,2.658203c2.456055,0 4.768555,-0.957032 6.500976,-2.658203c1.731934,1.702148 4.044434,2.658203 6.500977,2.658203s4.768555,-0.956055 6.5,-2.658203c1.732422,1.702148 4.04541,2.658203 6.501465,2.658203s4.768555,-0.957032 6.500976,-2.658203c1.731934,1.702148 4.044434,2.658203 6.500977,2.658203c2.848145,0 5.50293,-1.286133 7.28418,-3.528321c0.343261,-0.432617 0.270995,-1.061523 -0.161134,-1.405273z"/>
 </g>
</svg>