<svg width="48" height="60" xmlns="http://www.w3.org/2000/svg">
 <title>Sport_expand</title>

 <g>
  <title>background</title>
  <rect fill="none" id="canvas_background" height="402" width="582" y="-1" x="-1"/>
 </g>
 <g>
  <title>Layer 1</title>
  <path id="svg_1" d="m24,7.078a20.461,20.461 0 0 0 -14.391,35.006a0.75,0.75 0 1 0 1.055,-1.066a18.956,18.956 0 1 1 1.67,1.469a0.75,0.75 0 1 0 -0.924,1.182a20.257,20.257 0 0 0 12.59,4.331a20.461,20.461 0 0 0 0,-40.922z"/>
  <path id="svg_2" d="m15.6,42.026c0.01,0.007 0.015,0.018 0.026,0.024s0.015,0 0.021,0.006a16.632,16.632 0 0 0 16.714,0c0.006,0 0.014,0 0.021,-0.006s0.016,-0.017 0.026,-0.024a16.857,16.857 0 0 0 6.088,-6.091c0.005,-0.008 0.014,-0.01 0.019,-0.018s0,-0.018 0.009,-0.027a16.629,16.629 0 0 0 0,-16.7c-0.005,-0.009 0,-0.018 -0.009,-0.027s-0.017,-0.016 -0.024,-0.027a16.865,16.865 0 0 0 -6.091,-6.084c-0.01,-0.007 -0.015,-0.018 -0.026,-0.024s-0.018,0 -0.027,-0.009a16.635,16.635 0 0 0 -16.7,0c-0.009,0 -0.018,0 -0.027,0.009s-0.016,0.017 -0.026,0.024a16.865,16.865 0 0 0 -6.083,6.082c-0.007,0.011 -0.018,0.016 -0.024,0.027s0,0.018 -0.009,0.027a16.629,16.629 0 0 0 0,16.7c0,0.009 0,0.019 0.009,0.027s0.014,0.01 0.019,0.018a16.857,16.857 0 0 0 6.094,6.093zm0.137,-27.305l0.887,1.536a0.751,0.751 0 0 0 0.651,0.375a0.75,0.75 0 0 0 0.648,-1.125l-0.887,-1.537a15.139,15.139 0 0 1 6.218,-1.661l0,1.758a0.75,0.75 0 0 0 1.5,0l0,-1.758a15.139,15.139 0 0 1 6.218,1.661l-0.887,1.537a0.75,0.75 0 1 0 1.3,0.75l0.887,-1.536a15.37,15.37 0 0 1 4.551,4.552l-1.536,0.886a0.75,0.75 0 1 0 0.75,1.3l1.537,-0.887a15.16,15.16 0 0 1 1.662,6.218l-1.764,0a0.75,0.75 0 1 0 0,1.5l1.759,0a15.16,15.16 0 0 1 -1.662,6.219l-1.537,-0.888a0.75,0.75 0 0 0 -0.75,1.3l1.536,0.887a15.358,15.358 0 0 1 -4.552,4.551l-0.886,-1.535a0.75,0.75 0 0 0 -1.3,0.75l0.887,1.536a15.16,15.16 0 0 1 -6.217,1.66l0,-1.759a0.75,0.75 0 1 0 -1.5,0l0,1.759a15.16,15.16 0 0 1 -6.218,-1.662l0.887,-1.536a0.75,0.75 0 0 0 -1.3,-0.75l-0.886,1.535a15.362,15.362 0 0 1 -4.552,-4.552l1.535,-0.886a0.75,0.75 0 0 0 -0.75,-1.3l-1.536,0.887a15.155,15.155 0 0 1 -1.662,-6.218l1.759,0a0.75,0.75 0 0 0 0,-1.5l-1.758,0a15.16,15.16 0 0 1 1.662,-6.218l1.536,0.887a0.75,0.75 0 0 0 0.75,-1.3l-1.535,-0.886a15.37,15.37 0 0 1 4.551,-4.55l0.004,0z"/>
  <path id="svg_3" d="m21.173,5.589l0,0.1a0.75,0.75 0 0 0 1.5,0l0,-0.789a0.75,0.75 0 0 0 -0.75,-0.75l-0.078,0l0,-2.65l4.582,0l0,2.654l-0.078,0a0.75,0.75 0 0 0 -0.75,0.75l0,0.815a0.75,0.75 0 0 0 1.5,0l0,-0.129a1.222,1.222 0 0 0 0.828,-1.156l0,-3.216a1.22,1.22 0 0 0 -1.219,-1.218l-5.142,0a1.221,1.221 0 0 0 -1.221,1.218l0,3.216a1.22,1.22 0 0 0 0.828,1.155z"/>
  <path id="svg_4" d="m36.518,10.085a0.75,0.75 0 0 0 1.028,-1.085l0.709,-0.862l2.51,2.026l-0.7,0.859a0.75,0.75 0 0 0 -0.861,1.225l0.143,0.115a1.224,1.224 0 0 0 1.7,-0.177l1.053,-1.286a1.216,1.216 0 0 0 -0.175,-1.724l-2.945,-2.376a1.221,1.221 0 0 0 -1.708,0.175l-1.057,1.282a1.214,1.214 0 0 0 0.173,1.722l0.13,0.106z"/>
  <path id="svg_5" d="m24.136,29.938a2.368,2.368 0 0 0 1.4,-0.459c0.009,-0.006 0.019,-0.008 0.027,-0.014l8.233,-6.624a0.749,0.749 0 0 0 -0.738,-1.284l-9.828,3.763l0,0a2.4,2.4 0 0 0 0.91,4.615l-0.004,0.003zm-0.896,-2.403a0.9,0.9 0 0 1 0.545,-0.824l0.01,0a0.9,0.9 0 0 1 1.24,0.828a0.9,0.9 0 1 1 -1.8,0l0.005,-0.004zm3.182,-0.69a2.381,2.381 0 0 0 -0.536,-0.939l3.25,-1.245l-2.714,2.184z"/>
  <path id="svg_6" d="m7.228,12.187a1.225,1.225 0 0 0 1.7,0.173l0.14,-0.113a0.75,0.75 0 0 0 -0.86,-1.225l-0.7,-0.859l2.511,-2.026l0.707,0.863a0.75,0.75 0 0 0 1.028,1.086l0.125,-0.1a1.216,1.216 0 0 0 0.18,-1.724l-1.059,-1.292a1.223,1.223 0 0 0 -1.708,-0.176l-2.944,2.378a1.214,1.214 0 0 0 -0.18,1.724l1.06,1.291z"/>
  <text id="svg_8" font-family="'Helvetica Neue', Helvetica, Arial-Unicode, Arial, Sans-serif" font-weight="bold" font-size="5px" fill="#000000" y="68" x="0">from the Noun Project</text>
 </g>
</svg>