<svg width="140" height="175" xmlns="http://www.w3.org/2000/svg">

 <g>
  <title>background</title>
  <rect fill="none" id="canvas_background" height="127" width="102" y="-1" x="-1"/>
 </g>
 <g>
  <title>Layer 1</title>
  <g id="svg_1">
   <path id="svg_2" d="m134.006714,110.275711c-2.679932,0 -3.910156,-0.980102 -5.469971,-2.230102c-1.690185,-1.359986 -3.610107,-2.890015 -7.340088,-2.890015s-5.650146,1.530029 -7.340088,2.890015c-1.560058,1.25 -2.790039,2.230102 -5.459961,2.230102c-2.679931,0 -3.909912,-0.980102 -5.46997,-2.230102c-1.689942,-1.359986 -3.610108,-2.890015 -7.340088,-2.890015s-5.639893,1.530029 -7.339844,2.890015c-1.469971,1.180053 -2.669922,2.109985 -5.060059,2.210083l0,-76.239987c0,-8.270021 6.729981,-15.110109 15,-15.250002c3.939942,-0.080078 7.79004,1.479981 10.719971,4.369873c3.040039,2.979981 4.780029,7.110108 4.780029,11.320071l0,0.260009c0,1.199952 0.469971,2.329956 1.310059,3.169922c0.830078,0.850098 1.98999,1.330078 3.189941,1.330078c2.479981,0 4.5,-2.020019 4.5,-4.5l0,-0.699951c0,-6.650148 -2.640136,-12.8501 -7.439941,-17.470095c-4.790039,-4.619995 -11.080078,-7.019897 -17.75,-6.769897c-12.850098,0.48999 -23.310059,11.619873 -23.310059,24.799929l0,5.390014l-36.75,0l0,-5.520019c0,-8.270022 6.26001,-15.140017 14.26001,-15.650027c3.73999,-0.23999 7.409912,0.900025 10.340088,3.190064c1.369873,1.069946 3.179932,1.270019 4.73999,0.51001c1.559815,-0.76001 2.53003,-2.310059 2.53003,-4.050049c0,-1.400025 -0.640137,-2.699951 -1.75,-3.570069c-4.570069,-3.569946 -10.300049,-5.369873 -16.100098,-5.079956c-12.910156,0.640015 -23.02002,11.490113 -23.02002,24.690066l0,75.139892c-0.830078,-0.399902 -1.530029,-0.959961 -2.310058,-1.579956c-1.689942,-1.359985 -3.609863,-2.890014 -7.330078,-2.890014c-3.729981,0 -5.649903,1.530029 -7.339844,2.890014c-1.560059,1.25 -2.790039,2.230103 -5.459961,2.230103c-0.830078,0 -1.5,0.669922 -1.5,1.5c0,0.829956 0.669922,1.5 1.5,1.5c3.719971,0 5.639893,-1.53003 7.330078,-2.890137c1.559815,-1.25 2.789795,-2.22998 5.469727,-2.22998c2.670166,0 3.900146,0.97998 5.460205,2.22998c1.349853,1.080078 2.849853,2.26001 5.280029,2.700073c0.099854,0.029907 0.209961,0.049927 0.319824,0.049927c0.540039,0.080078 1.100098,0.140137 1.739991,0.140137c3.71997,0 5.640136,-1.53003 7.330078,-2.890137c1.560058,-1.25 2.790039,-2.22998 5.46997,-2.22998c2.669922,0 3.899903,0.97998 5.459961,2.22998c1.689942,1.360107 3.610108,2.890137 7.340088,2.890137c3.719971,0 5.639893,-1.53003 7.330078,-2.890137c1.559815,-1.25 2.789795,-2.22998 5.459961,-2.22998c2.679932,0 3.909912,0.97998 5.459961,2.22998c1.699951,1.360107 3.619873,2.890137 7.340088,2.890137c3.72998,0 5.649902,-1.53003 7.339844,-2.890137c1.560058,-1.25 2.790039,-2.22998 5.459961,-2.22998c2.680175,0 3.910156,0.97998 5.470214,2.22998c1.689942,1.360107 3.609864,2.890137 7.339844,2.890137c3.719971,0 5.640137,-1.53003 7.330078,-2.890137c1.560059,-1.25 2.790039,-2.22998 5.469971,-2.22998c2.669922,0 3.909912,0.97998 5.469971,2.22998c1.689941,1.360107 3.610107,2.890137 7.340088,2.890137c0.820068,0 1.5,-0.670044 1.5,-1.5c0,-0.830082 -0.679932,-1.500004 -1.5,-1.500004zm-59.820069,-4.280029c-1.109863,-0.5 -2.449951,-0.840088 -4.199951,-0.840088c-3.71997,0 -5.640136,1.530029 -7.330078,2.890015c-1.560058,1.25 -2.790039,2.230102 -5.459961,2.230102c-2.679931,0 -3.909912,-0.980102 -5.46997,-2.230102c-1.689942,-1.359986 -3.610108,-2.890015 -7.330079,-2.890015c-3.45996,0 -5.350097,1.320068 -6.95996,2.590088l0,-11.729981l36.75,0l0,9.979981l-0.000001,0zm0,-17.979981l-36.75,0l0,-16.020019l36.75,0l0,16.020019zm0,-24.020015l-36.75,0l0,-16.03003l36.75,0l0,16.03003z"/>
   <path id="svg_3" d="m134.003052,127.24202c-2.675782,0 -3.908203,-0.984375 -5.467774,-2.231446c-1.693359,-1.354492 -3.613281,-2.888672 -7.341796,-2.888672c-3.726563,0 -5.644532,1.535157 -7.337891,2.888672c-1.557617,1.247071 -2.789063,2.231446 -5.462891,2.231446c-2.674804,0 -3.90625,-0.984375 -5.46582,-2.231446c-1.692383,-1.354492 -3.611328,-2.888672 -7.338867,-2.888672c-3.726563,0 -5.644531,1.535157 -7.337891,2.888672c-1.557617,1.247071 -2.789062,2.231446 -5.46289,2.231446c-2.672852,0 -3.903321,-0.984375 -5.460938,-2.231446c-1.692383,-1.353515 -3.610351,-2.888672 -7.335937,-2.888672s-5.643555,1.535157 -7.335938,2.888672c-1.557617,1.247071 -2.788086,2.231446 -5.460937,2.231446c-2.673828,0 -3.905274,-0.984375 -5.462891,-2.231446c-1.693359,-1.353515 -3.611328,-2.888672 -7.337891,-2.888672c-3.725585,0 -5.644531,1.535157 -7.336914,2.888672c-1.557617,1.247071 -2.788086,2.231446 -5.461914,2.231446s-3.905273,-0.984375 -5.46289,-2.231446c-1.69336,-1.353515 -3.612305,-2.888672 -7.338868,-2.888672c-3.725585,0 -5.644531,1.535157 -7.336914,2.888672c-1.557617,1.247071 -2.788086,2.231446 -5.461914,2.231446c-0.828125,0 -1.5,0.671875 -1.5,1.5s0.671875,1.5 1.5,1.5c3.725586,0 5.644532,-1.535157 7.336914,-2.888672c1.557618,-1.24707 2.788086,-2.231445 5.461914,-2.231445c2.674805,0 3.90625,0.984375 5.464844,2.231445c1.692383,1.354492 3.610352,2.888672 7.336914,2.888672c3.725586,0 5.644532,-1.535157 7.336914,-2.888672c1.557618,-1.24707 2.788086,-2.231445 5.461915,-2.231445s3.905273,0.984375 5.46289,2.231445c1.69336,1.353515 3.611328,2.888672 7.337891,2.888672c3.725586,0 5.643554,-1.535157 7.335937,-2.888672c1.557617,-1.24707 2.788086,-2.231445 5.460938,-2.231445s3.90332,0.984375 5.460937,2.231445c1.692383,1.353515 3.610352,2.888672 7.335938,2.888672c3.726562,0 5.644531,-1.535157 7.33789,-2.888672c1.557618,-1.24707 2.789063,-2.231445 5.462891,-2.231445c2.674805,0 3.90625,0.984375 5.46582,2.231445c1.692383,1.354492 3.611328,2.888672 7.338867,2.888672c3.726563,0 5.644532,-1.535157 7.337891,-2.888672c1.557617,-1.24707 2.789063,-2.231445 5.462891,-2.231445c2.676757,0 3.909179,0.985351 5.46875,2.231445c1.693359,1.354492 3.613281,2.888672 7.34082,2.888672c0.828125,0 1.5,-0.671875 1.5,-1.5s-0.671875,-1.5 -1.5,-1.5z"/>
  </g>
 </g>
</svg>